<svg xmlns="http://www.w3.org/2000/svg" width="167.502" height="170.079" viewBox="0 0 167.502 170.079"><path fill="#A6C8F5" d="M49.72 130.663c1.352.02 2.687.02 4.04 0 3.085 0 4.255 1.075 4.255 2.656 0 1.535-1.12 2.343-2.094 2.69v.08c1.105.246 2.82 1.024 2.82 3.002 0 2.076-1.483 3.414-4.783 3.414-1.45-.015-2.92-.015-4.37 0v-.658c.79-.02 1.236-.184 1.236-.977v-8.573c0-.63-.297-.94-1.105-.977v-.657zm4.04 5.064c1.138 0 2.31-.922 2.31-2.16 0-1.39-.892-1.998-2.426-2.013h-.824v4.173h.94zm-.346 5.888c.347.015.875 0 1.237-.05 1.552-.213 2.096-1.204 2.096-2.408 0-2.077-1.897-2.537-3.052-2.537h-.874v4.138c.016.594.1.842.594.857zm10.696.89c-1.27 0-2.54-.014-3.81 0v-.657c.792-.02 1.236-.184 1.236-.977v-8.573c0-.63-.296-.94-1.105-.977v-.658c1.29.02 2.56.02 3.845 0h4.206l.215 2.557-.742.1-.065-.3c-.232-.792-.48-1.5-1.452-1.5l-2.903.02v4.32h1.962c.858 0 1.073-.197 1.22-1.04h.744v3.152h-.745c-.18-1.056-.43-1.19-1.203-1.19h-1.98v3.976c0 .48.05.828.627.857h2.077c1.518-.015 1.716-.213 2.442-1.8l.692.17-.528 2.52H64.11zm10.127-4.122l-.94 2.622c-.13.36-.23.758.297.822.15.02.38.02.643.02v.66c-1.32-.016-2.44-.035-3.678 0v-.66c.693-.07.973-.148 1.335-1.006 1.45-3.498 2.854-7.274 3.826-9.995l1.387-.38 3.727 10.178c.363.857.578 1.135 1.353 1.205v.658c-1.37-.015-2.903-.015-4.29 0v-.658l.645-.035c.395-.035.43-.46.313-.843l-.89-2.587h-3.728zm1.913-5.243h-.065l-1.5 4.223h3.018l-1.453-4.223zm12.254 9.53c-2.854 0-4.552-1.234-4.602-4.634v-5.675c-.016-.92-.627-1.04-1.302-1.04v-.658c1.318.034 3.216.02 4.5 0v.658c-.623.02-1.186.198-1.186.843v5.873c0 2.374 1.006 3.762 3.2 3.727 1.962-.034 2.72-1.68 2.705-3.33v-6.086c0-.828-.546-.99-1.453-1.006v-.658c1.438.015 2.458.015 3.942 0v.64c-.908.034-1.04.133-1.074.976v5.79c0 3.116-1.68 4.582-4.732 4.582zm9.114-12.007h6.567c.28 0 .793.034 1.565-.15l.184 2.99-.743.063-.163-.61c-.232-.856-.43-1.387-1.238-1.387h-1.865v8.826c.016 1.104.28 1.367 1.517 1.452v.658h-5.08v-.658c1.24-.085 1.502-.348 1.518-1.452v-8.827h-1.864c-.808 0-1.006.53-1.233 1.387l-.17.61-.74-.065.182-2.988c.774.183 1.285.15 1.563.15zm16.523 9.733c.016 1.104.278 1.367 1.518 1.452v.658h-5.08v-.658c1.236-.085 1.502-.348 1.517-1.452v-2.41c0-.445-.23-.87-.43-1.203l-2.652-4.32c-.563-.923-.942-1.092-1.75-1.142v-.657c1.368.02 3.05.02 4.42 0v.658c-.678 0-.956.12-.708.517l2.324 3.99h.13l2.03-3.86c.298-.61-.035-.646-.61-.675v-.645c1.32.016 2.31.035 3.544 0v.674c-.708.036-1.233.284-1.63 1.008l-2.508 4.505c-.148.347-.114.724-.114 1.006v2.556zm-67.49 9.91c1.584 0 2.54.413 3.25.547l.165 2.438-.808.15c-.38-1.354-1.452-2.16-2.887-2.16-2.44 0-4.205 2.18-4.205 4.965 0 3.48 2.326 4.932 4.272 4.946 1.863.02 3.25-.87 3.627-1.22l.512.66c-.198.248-1.863 1.814-4.57 1.8-3.545 0-5.903-2.31-5.903-5.888.032-3.677 2.423-6.235 6.548-6.235zm17.325 5.94c0 3.84-2.788 6.22-6.052 6.22-3.58 0-5.988-2.578-5.988-5.94 0-3.88 2.688-6.22 6.004-6.22 3.743 0 6.035 2.638 6.035 5.94zm-2.144.28c0-2.79-1.582-5.312-4.106-5.312-2.607 0-3.646 2.522-3.646 4.98 0 2.854 1.6 5.362 4.074 5.362 2.574 0 3.68-2.442 3.68-5.03zm18.033 5.11v.66c-1.32-.016-3.2-.016-4.47 0v-.675c.71-.014 1.17-.212 1.188-.82l-.05-7.673h-.114l-3.464 8.41h-1.254l-3.2-8.296h-.132l-.1 7.573c0 .645.497.808 1.124.823v.66c-1.238-.03-2.64-.017-3.96 0v-.64c.612-.036 1.354-.234 1.37-.894l.313-8.776c0-.71-.494-.857-1.17-.872v-.66h3.628l3.168 8.41 3.43-8.41h3.35v.66c-.726 0-1.188.213-1.188 1.04l.28 8.608c.015.726.66.845 1.253.875zm1.934-11.18c1.187.016 2.358.03 3.545.016l1.006-.015c2.03 0 4.39.51 4.39 3.146 0 2.48-2.243 3.663-4.422 3.86-.245.02-.627.035-.857.035v-.808c1.567 0 3.314-.907 3.314-2.854 0-1.978-1.435-2.474-2.937-2.474h-.923v9.317c0 .926.842.94 1.6.956v.66c-1.435-.017-3.365-.017-4.85 0v-.64c.76-.036 1.205-.135 1.24-.978v-8.594c0-.624-.298-.937-1.106-.97v-.657zm12.183 7.716l-.94 2.627c-.13.36-.23.757.297.82.148.017.38.017.644.017v.66c-1.316-.017-2.44-.03-3.676 0v-.66c.693-.064.972-.15 1.336-1.007 1.45-3.493 2.852-7.27 3.825-9.996l1.386-.376 3.728 10.174c.364.857.58 1.14 1.354 1.205v.66c-1.368-.017-2.902-.017-4.287 0v-.66l.645-.03c.394-.034.426-.466.312-.843l-.892-2.592h-3.73zm1.913-5.243h-.064l-1.502 4.222h3.018l-1.453-4.223zm16.652 9.415l-6.3-8.936h-.133c0 2.19.05 4.563.05 6.76 0 1.288.232 1.387 1.402 1.467v.66c-1.383-.017-2.687-.017-4.074 0v-.66c1.172-.08 1.254-.198 1.254-1.468l.035-7.554c-.02-1.338-.267-1.417-1.24-1.5v-.66h2.954l6.234 8.87h.113l-.098-6.83c-.015-1.218-.327-1.332-1.353-1.38v-.66c.296 0 .678.015 3.976 0v.66c-1.088.048-1.187.212-1.204 1.38l-.082 9.85h-1.535zm11.18-2.16c.016 1.104.278 1.372 1.518 1.452v.66h-5.08v-.66c1.236-.08 1.502-.348 1.517-1.452v-2.41c0-.44-.23-.87-.43-1.198l-2.653-4.32c-.563-.928-.94-1.092-1.75-1.14v-.66c1.37.015 3.052.015 4.422 0v.66c-.68 0-.958.112-.71.51l2.324 3.99h.132l2.03-3.857c.296-.61-.036-.644-.61-.68v-.644c1.318.02 2.31.035 3.543 0v.68c-.71.034-1.234.277-1.63 1.006l-2.51 4.505c-.148.342-.113.724-.113 1.006v2.552zm-79.896-28.19H11.692v1.27h32.035v-1.27zm0 4.362H16.77v1.27h26.96v-1.27zm-.002 4.355H21.842v1.27h21.886v-1.27zm111.965-8.716h-32.035v1.27h32.035v-1.27zm-5.075 4.36h-26.96v1.27h26.96v-1.27zm-5.072 4.356H123.66v1.27h21.886v-1.27zM46.414 13.324c-.018-.73-.586-.943-1.316-.943v-.71c1.422.036 3.36.02 4.745 0v.71c-.675.02-1.278.215-1.278.908v4.55c1.244-1.334 2.416-2.774 3.696-4.373.5-.622.57-1.084-.444-1.084v-.71c1.6.036 2.826.054 4.408 0v.71c-1.03 0-1.546.41-2.15 1.104-1.334 1.546-2.293 2.718-3.466 4.07v.213c1.26 1.474 2.826 3.625 4.21 4.904.642.588 1.317.98 1.832 1.05v.71h-1.067c-1.244 0-2.008.036-2.984-1.012-.535-.57-.784-.87-3.627-4.3-.177-.18-.284-.267-.408-.322v4.036c0 .692.64.87 1.314.888v.71c-1.387-.018-3.342-.018-4.782 0v-.71c.71-.02 1.298-.196 1.316-.888v-9.508zm24.312 4.584c0 4.14-3.003 6.7-6.522 6.7-3.856 0-6.45-2.772-6.45-6.398 0-4.177 2.895-6.7 6.47-6.7 4.033 0 6.502 2.844 6.502 6.398zm-2.31.302c0-3.003-1.705-5.723-4.424-5.723-2.808 0-3.928 2.72-3.928 5.367 0 3.075 1.723 5.776 4.39 5.776 2.772 0 3.963-2.63 3.963-5.42zm8.023.48v4c0 .995.78 1.012 1.6 1.03v.71c-1.547-.017-3.502-.017-5.102 0v-.69c.818-.037 1.3-.144 1.333-1.05v-9.258c0-.675-.32-1.014-1.19-1.05v-.71c1.138.018 2.275.018 3.412 0l1.404-.02c1.974 0 4.515.535 4.515 3.094 0 1.53-.977 2.843-2.434 3.448v.143c.816 1.385 2.31 3.59 2.967 4.39.48.586.924.906 1.457.977v.73h-1.083c-1.387-.054-1.617-.125-2.47-1.156-.57-.73-1.974-2.896-2.772-4.21-.196-.303-.356-.375-.622-.375H76.44zm0-6.06v5.1h1.12c1.794 0 2.594-1.67 2.63-2.683.052-1.85-1.19-2.417-2.685-2.417H76.44zm14.043 11.8c-1.368 0-2.738-.018-4.106 0v-.71c.854-.02 1.333-.196 1.333-1.05v-9.24c0-.674-.317-1.013-1.19-1.05v-.71c1.39.02 2.757.02 4.142 0h4.532l.23 2.755-.8.106-.07-.318c-.25-.854-.515-1.617-1.565-1.617l-3.128.018v4.656h2.116c.922 0 1.154-.214 1.313-1.12h.8v3.394h-.8c-.192-1.137-.46-1.28-1.296-1.28H89.86v4.283c0 .516.056.888.675.924h2.24c1.635-.017 1.85-.23 2.632-1.937l.745.18-.567 2.717h-5.102zm11.4-4.442l-1.01 2.825c-.144.39-.248.817.32.888.16.02.408.02.69.02v.71c-1.422-.018-2.63-.035-3.962 0v-.71c.747-.072 1.05-.16 1.44-1.084 1.563-3.768 3.075-7.838 4.124-10.77l1.49-.41 4.018 10.966c.392.923.622 1.226 1.46 1.297v.71c-1.477-.02-3.13-.02-4.624 0v-.71l.693-.037c.428-.036.465-.498.34-.905l-.958-2.79h-4.018zm2.063-5.652h-.07l-1.617 4.55h3.252l-1.566-4.55zm9.57-3.287c0 1.243-.798 2.487-2.22 3.232l-.357-.48c.5-.3 1.317-.94 1.298-1.812-.018-.55-.427-.747-.996-.675-.213-.213-.303-.515-.282-.747.034-.48.32-1.048 1.154-1.065.817 0 1.402.603 1.402 1.546zm2.324 10.395c.198 1.457 1.23 2.186 2.295 2.186.96 0 1.65-.638 1.65-1.385 0-2.31-4.62-1.76-4.62-4.514 0-1.208.997-2.593 3.413-2.593.69 0 1.973.284 2.773.888l-.108 1.653-.764.09c-.213-1.015-1.1-1.672-2.096-1.654-.46 0-1.28.3-1.227 1.225.126 2.043 4.745 1.51 4.745 4.478 0 1.35-1.3 2.79-3.855 2.79-.996 0-2.063-.213-2.97-.817-.068-.497-.105-1.83-.105-2.29l.87-.055z"/></svg>