<svg xmlns="http://www.w3.org/2000/svg" width="167.502" height="170.079" viewBox="0 0 167.502 170.079"><path fill="#A6C8F5" d="M64.493 9.99c1.703 0 2.732.442 3.495.584l.177 2.626-.868.16c-.408-1.455-1.562-2.324-3.106-2.324-2.623 0-4.52 2.34-4.52 5.34 0 3.743 2.5 5.303 4.593 5.32 2.005.02 3.494-.94 3.902-1.31l.55.708c-.213.266-2.005 1.952-4.914 1.933-3.813 0-6.35-2.483-6.35-6.332.036-3.957 2.608-6.706 7.043-6.706zm19.115 6.385c0 4.133-2.998 6.688-6.51 6.688-3.85 0-6.44-2.768-6.44-6.387 0-4.17 2.89-6.688 6.457-6.688 4.028 0 6.493 2.84 6.493 6.387zm-2.306.3c0-2.997-1.703-5.712-4.417-5.712-2.803 0-3.92 2.715-3.92 5.358 0 3.07 1.72 5.767 4.38 5.767 2.77 0 3.957-2.626 3.957-5.41zm8.01.48v3.992c0 .993.78 1.01 1.596 1.03v.707c-1.544-.017-3.495-.017-5.093 0v-.69c.816-.037 1.296-.143 1.33-1.047v-9.242c0-.674-.316-1.012-1.187-1.048v-.708c1.135.017 2.27.017 3.405 0l1.403-.02c1.97 0 4.507.533 4.507 3.087 0 1.526-.978 2.838-2.432 3.442v.142c.814 1.382 2.306 3.583 2.962 4.38.48.586.925.905 1.454.976v.727h-1.08c-1.384-.053-1.616-.124-2.467-1.153-.57-.727-1.97-2.892-2.767-4.204-.198-.302-.356-.374-.623-.374h-1.008zm0-6.05V16.2h1.118c1.79 0 2.587-1.667 2.624-2.68.053-1.844-1.19-2.412-2.68-2.412h-1.062zm14.017 11.78c-1.366 0-2.734-.017-4.1 0v-.708c.854-.02 1.33-.196 1.33-1.048v-9.225c0-.674-.315-1.012-1.187-1.048v-.708c1.386.017 2.75.017 4.134 0h4.523l.23 2.75-.8.105-.068-.32c-.25-.85-.515-1.613-1.563-1.613l-3.123.017v4.647h2.113c.92 0 1.152-.213 1.31-1.118h.8v3.388h-.8c-.192-1.135-.46-1.277-1.293-1.277h-2.13v4.276c0 .515.055.887.673.923h2.236c1.633-.02 1.846-.232 2.627-1.936l.745.178-.567 2.713h-5.09zm-18.312 126.24c0 1.02.59 1.302 1.28 1.302.563-.035 1.32-.43 1.698-.876v-2.65c-1.4.083-2.978.874-2.978 2.225zm-15.778-5.403c-1.317 0-2.273 1.218-2.224 3.325.033 1.76.906 3.64 2.667 3.64 1.794 0 2.19-1.795 2.19-3.244-.048-1.662-.707-3.72-2.633-3.72zm36.926 0c-1.318 0-2.275 1.218-2.226 3.325.034 1.76.907 3.64 2.67 3.64 1.792 0 2.187-1.795 2.187-3.244-.048-1.662-.706-3.72-2.63-3.72zm49.682-15.178H126.33l13.123 3.107h-.024l-110.816-.01 13.117-3.102H12.21l11.16 14.965L11.847 156.6h21.555l1.18 4.24h97.913l1.217-4.235h21.71L143.9 143.51l11.948-14.966zm-56.452 10.29c.675 0 1.185.44 1.185 1.133 0 .63-.51 1.104-1.2 1.104-.674 0-1.218-.474-1.218-1.103 0-.692.544-1.133 1.234-1.133zM44.608 151.43h-4.61v-.658c1.168-.084 1.3-.197 1.3-1.47v-7.588c0-1.316-.18-1.35-1.25-1.45v-.657c.576.015 3.49.034 4.512 0v.657c-1.137.1-1.268.232-1.268 1.45v7.59c0 1.285.13 1.384 1.317 1.468v.658zm10.15 0c-1.416-.02-2.338-.02-3.754 0v-.658c.527-.02.89-.148.905-.812v-3.982c0-1.167-.48-1.91-1.384-1.91-.757 0-1.695.56-2.042 1.302v4.59c0 .63.313.813 1.022.813v.658c-1.417-.02-2.47-.02-3.886 0v-.657c.527-.02.89-.148.905-.812v-5.198c0-.56-.148-.628-.527-.628h-.46v-.623l2.6-.677c.166-.05.346.02.314.28v.97h.1c.542-.593 1.35-1.266 2.584-1.266 1.498 0 2.733.856 2.733 2.454v4.69c0 .53.23.792.887.812v.658zm9.874 0c-1.416-.02-2.34-.02-3.755 0v-.658c.527-.02.89-.148.905-.812v-3.982c0-1.167-.477-1.91-1.382-1.91-.757 0-1.696.56-2.042 1.302v4.59c0 .63.313.813 1.02.813v.658c-1.415-.02-2.47-.02-3.885 0v-.657c.527-.02.89-.148.906-.812v-5.198c0-.56-.15-.628-.528-.628h-.46v-.623l2.6-.677c.166-.05.346.02.314.28v.97h.1c.542-.593 1.35-1.266 2.584-1.266 1.498 0 2.733.856 2.733 2.454v4.69c0 .53.23.792.89.812v.658zm4.74.163c-2.438 0-4.347-1.598-4.315-4.3.018-2.68 2.042-4.477 4.544-4.477 2.39 0 4.25 1.662 4.25 4.314 0 2.667-1.86 4.463-4.48 4.463zm13.598-8.053c-.66.07-.907.183-1.317 1.35-.626 1.718-1.334 3.627-2.454 6.54h-1.516l-2.7-6.802c-.313-.806-.478-.99-1.234-1.068v-.594c1.365.05 2.535.035 3.934 0v.574c-.592.02-.74.232-.608.678l1.646 4.907h.1c.575-1.464 1.25-3.443 1.694-4.893.165-.475.016-.692-.725-.707v-.56c1.22.05 1.944.035 3.18 0v.575zm7.957 7.425c-.626.415-1.4.628-1.73.628-.625 0-.87-.495-1.004-.99-.692.63-1.895.99-2.535.99-1.137 0-2.634-.46-2.634-2.172 0-2.042 2.733-3.294 4.957-3.427v-.807c0-.836-.412-1.55-1.448-1.53-.742.017-1.22.808-1.04 1.68-.21.26-.59.395-.97.395-.527 0-1.004-.31-1.004-.87 0-1.483 2.223-2.058 3.474-2.058 1.994 0 2.964.87 2.964 2.454v4.922c0 .327.084.396.247.376.282-.015.41-.03.725-.064v.475zm2.762.628c-.842 0-1.433-.33-1.465-2.107V144.4c0-.183 0-.232-.05-.232H90.84v-.608l1.45-.43v-1.663l1.61-.608c.217-.035.315 0 .315.296v1.974h2.273v1.024h-2.273v4.972c-.018 1.084.265 1.118.725 1.118.608-.015 1.563-.064 1.563-.064l.1.658c0-.002-1.71.755-2.914.755zm7.88-.163c-1.533-.02-2.686-.02-4.2 0v-.658c.53-.05 1.104-.183 1.12-.89v-5.155c0-.56-.147-.624-.526-.624h-.46v-.628l2.617-.658c.2-.05.348 0 .348.282l-.018 6.78c0 .674.413.857 1.12.892v.658zm4.725.163c-2.434 0-4.344-1.598-4.313-4.3.02-2.68 2.043-4.477 4.546-4.477 2.388 0 4.247 1.662 4.247 4.314 0 2.667-1.86 4.463-4.48 4.463zm14.327-.163c-1.415-.02-2.34-.02-3.755 0v-.658c.526-.02.89-.148.905-.812v-3.982c0-1.167-.478-1.91-1.383-1.91-.758 0-1.695.56-2.042 1.302v4.59c0 .63.312.813 1.02.813v.658c-1.415-.02-2.47-.02-3.884 0v-.657c.524-.02.89-.148.905-.812v-5.198c0-.56-.15-.628-.53-.628h-.46v-.623l2.603-.677c.163-.05.346.02.312.28v.97h.1c.543-.593 1.35-1.266 2.587-1.266 1.496 0 2.73.856 2.73 2.454v4.69c0 .53.232.792.89.812v.658zm3.463.163c-.92 0-1.91-.198-2.748-.757-.067-.46-.1-1.697-.1-2.122l.807-.05c.18 1.346 1.136 2.023 2.125 2.023.887 0 1.53-.594 1.53-1.286 0-2.137-4.282-1.627-4.282-4.18 0-1.118.923-2.404 3.16-2.404.645 0 1.83.263 2.57.82l-.1 1.535-.708.085c-.198-.94-1.02-1.55-1.94-1.534-.43 0-1.187.283-1.137 1.14.113 1.89 4.396 1.4 4.396 4.145 0 1.252-1.203 2.588-3.575 2.588z"/></svg>