<svg xmlns="http://www.w3.org/2000/svg" width="167.502" height="170.079" viewBox="0 0 167.502 170.079"><path fill="#A6C8F5" d="M70.26 16.373c0 4.133-3 6.688-6.51 6.688-3.85 0-6.44-2.767-6.44-6.386 0-4.17 2.892-6.688 6.457-6.688 4.027 0 6.492 2.84 6.492 6.387zm-2.306.302c0-2.998-1.703-5.713-4.418-5.713-2.803 0-3.92 2.715-3.92 5.358 0 3.07 1.722 5.766 4.382 5.766 2.767 0 3.956-2.626 3.956-5.41zm10.507 3.283c.48-1.348 1.42-4.027 2.822-8.054.283-.833-.053-1.065-.906-1.048v-.708c1.42.018 2.732.035 4.063 0v.708c-.747.072-1.155.16-1.51 1.083l-4.187 10.98h-1.648l-4.152-10.786c-.355-.993-.797-1.225-1.632-1.295v-.71c1.474.018 3.496.018 4.986 0v.71l-.71.035c-.532.035-.514.496-.39.904l3.016 8.178h.25zm12.042 2.926c-1.366 0-2.733-.018-4.1 0v-.71c.854-.018 1.33-.194 1.33-1.046v-9.224c0-.674-.315-1.012-1.187-1.048v-.708c1.386.018 2.75.018 4.134 0h4.523l.23 2.75-.8.106-.07-.32c-.25-.85-.514-1.613-1.562-1.613l-3.12.018v4.648h2.112c.92 0 1.152-.213 1.312-1.118h.8v3.39h-.8c-.193-1.137-.46-1.28-1.294-1.28h-2.13v4.276c0 .515.055.887.673.923h2.236c1.63-.017 1.844-.23 2.626-1.935l.744.178-.566 2.714h-5.092zm11.39-5.73v3.992c0 .993.782 1.01 1.6 1.03v.708c-1.544-.018-3.496-.018-5.092 0v-.69c.816-.037 1.297-.144 1.33-1.047v-9.243c0-.674-.32-1.012-1.188-1.048v-.708c1.135.018 2.27.018 3.406 0l1.4-.02c1.97 0 4.506.534 4.506 3.088 0 1.526-.975 2.84-2.43 3.442v.142c.817 1.383 2.307 3.583 2.965 4.38.476.587.92.906 1.453.977v.728h-1.084c-1.386-.053-1.613-.124-2.467-1.153-.566-.728-1.97-2.892-2.768-4.204-.193-.302-.354-.374-.62-.374h-1.012zm0-6.05v5.092h1.12c1.792 0 2.59-1.667 2.626-2.68.055-1.844-1.188-2.412-2.68-2.412h-1.065zM93.22 142.76c0-1.277-.818-1.842-2.23-1.856h-.762v3.844h.865c1.05 0 2.127-.85 2.127-1.99zm7.15 1.152c-1.05 0-1.732.866-1.856 2.068 1.155 0 2.22-.035 3.39-.035-.002-1.183-.595-2.033-1.535-2.033zm5.9 4.952c0 .94.546 1.202 1.184 1.202.515-.034 1.215-.396 1.563-.807v-2.45c-1.29.08-2.748.807-2.748 2.054zm-15.237-3.295h-.806v3.81c.017.548.094.775.55.79.315.016.803 0 1.137-.044 1.43-.198 1.93-1.108 1.93-2.217 0-1.915-1.747-2.34-2.81-2.34zm-46.436-1.658c-1.05 0-1.73.866-1.853 2.068 1.154 0 2.217-.035 3.386-.035 0-1.183-.592-2.033-1.533-2.033zm111.252-15.367H126.33l13.122 3.107h-.024l-110.817-.01 13.118-3.103H12.21l11.158 14.965L11.846 156.6H33.4l1.18 4.24h97.916l1.217-4.235h21.71L143.9 143.51l11.95-14.965zM74.146 141.26c.52 0 .913.34.913.875 0 .48-.393.847-.925.847-.52 0-.938-.366-.938-.847 0-.534.42-.875.95-.875zm-34.096.356l-2.307 4.15c-.137.317-.106.67-.106.926v2.354c.015 1.02.257 1.262 1.397 1.336v.608h-4.68v-.608c1.14-.074 1.384-.316 1.398-1.336v-2.216c0-.41-.212-.807-.395-1.113l-2.446-3.978c-.515-.852-.865-1.005-1.61-1.05v-.608c1.263.015 2.81.015 4.073 0v.608c-.624 0-.882.11-.653.47l2.14 3.676h.124l1.867-3.552c.274-.563-.028-.594-.56-.623v-.593c1.214.015 2.125.03 3.264 0v.623c-.652.03-1.138.26-1.503.926zm7.858 5.244h-5.255c-.015 2.217 1.2 3.142 2.552 3.142.713 0 1.595-.242 2.294-.697l.41.608c-.76.668-1.824 1.227-3.25 1.227-2.34 0-3.844-1.622-3.844-3.947 0-2.414 1.807-4.146 4.024-4.146 1.944 0 3.114 1.262 3.114 3.162 0 .056 0 .284-.046.65zm8.042 3.706c-.577.38-1.29.573-1.595.573-.576 0-.805-.456-.926-.91-.64.578-1.748.91-2.34.91-1.05 0-2.43-.42-2.43-2.004 0-1.885 2.52-3.038 4.57-3.156v-.747c0-.772-.38-1.425-1.335-1.41-.684.015-1.125.742-.958 1.548-.198.244-.546.362-.896.362-.485 0-.925-.287-.925-.8 0-1.372 2.05-1.9 3.206-1.9 1.84 0 2.734.806 2.734 2.26v4.542c0 .307.077.366.228.352.26-.016.38-.03.67-.06v.44zm5.426-5.56c-.167-.26-.486-.427-.836-.427-.455 0-1.062.533-1.275 1.018v4.042c0 .574.44.742 1.093.742v.608c-.653 0-1.26-.015-1.87-.015-.606 0-1.214.015-1.867.015v-.608c.487-.015.82-.14.836-.742v-4.804c0-.515-.136-.573-.486-.573h-.425v-.58l2.416-.622c.153-.03.29 0 .29.258v.96h.105c.35-.505.882-1.232 1.73-1.232.852 0 1.308.44 1.308.94 0 .58-.378 1.02-1.017 1.02zm4.013 6.133c-.852 0-1.764-.18-2.538-.698-.062-.426-.09-1.563-.09-1.96l.744-.044c.167 1.247 1.047 1.87 1.96 1.87.82 0 1.412-.55 1.412-1.188 0-1.974-3.95-1.504-3.95-3.858 0-1.03.852-2.217 2.918-2.217.592 0 1.686.243 2.37.763l-.092 1.41-.653.073c-.18-.864-.94-1.424-1.79-1.408-.396 0-1.094.257-1.05 1.05.106 1.745 4.057 1.29 4.057 3.823-.002 1.158-1.112 2.384-3.298 2.384zm10.43-.183c-1.178-.01-2.066-.01-3.23 0v-.505c.405-.04.848-.14.86-.688v-3.968c0-.43-.114-.48-.405-.48h-.355v-.48l2.015-.508c.152-.04.266 0 .266.217l-.01 5.22c0 .52.315.663.86.688v.504zm7.653 0c-1.09-.01-1.8-.01-2.89 0v-.505c.406-.015.684-.113.698-.623v-3.068c0-.9-.367-1.47-1.064-1.47-.584 0-1.306.43-1.572 1v3.537c0 .483.24.622.786.622v.505c-1.09-.01-1.9-.01-2.992 0v-.505c.406-.015.686-.113.698-.623v-4.01c0-.43-.114-.478-.406-.478h-.355v-.48l2.004-.52c.125-.04.265.01.24.214v.747h.076c.418-.456 1.04-.975 1.99-.975 1.154 0 2.104.657 2.104 1.89v3.61c0 .406.178.61.685.624v.505zm7.802.034c-1.335-.014-2.686-.014-4.024 0v-.607c.73-.015 1.142-.168 1.142-.896v-7.9c0-.574-.274-.865-1.02-.896v-.607c1.247.015 2.477.015 3.72 0 2.843 0 3.922.99 3.922 2.45 0 1.408-1.03 2.155-1.93 2.473v.074c1.017.228 2.598.944 2.598 2.765 0 1.914-1.37 3.146-4.407 3.146zm12.404-4.13h-5.255c-.015 2.217 1.197 3.142 2.55 3.142.715 0 1.596-.242 2.293-.697l.41.608c-.76.668-1.822 1.227-3.25 1.227-2.34 0-3.844-1.622-3.844-3.947 0-2.414 1.81-4.146 4.027-4.146 1.945 0 3.112 1.262 3.112 3.162 0 .056 0 .284-.043.65zm8.043 3.706c-.58.38-1.29.573-1.598.573-.574 0-.805-.456-.926-.91-.64.578-1.747.91-2.34.91-1.05 0-2.43-.42-2.43-2.004 0-1.885 2.522-3.038 4.57-3.156v-.747c0-.772-.38-1.425-1.335-1.41-.683.015-1.123.742-.957 1.548-.198.244-.547.362-.898.362-.484 0-.925-.287-.925-.8 0-1.372 2.05-1.9 3.206-1.9 1.84 0 2.733.806 2.733 2.26v4.542c0 .307.077.366.23.352.258-.016.377-.03.67-.06v.44zm8.546.044l-2.354.608c-.183.045-.307-.015-.29-.257v-.7h-.03c-.47.488-1.245.988-2.355.974-1.275-.016-2.398-.82-2.398-2.28v-4.28c0-.52-.136-.58-.485-.58h-.44v-.577l2.444-.455c.185-.045.29.015.29.257v5.075c0 1.078.35 1.687 1.126 1.7.683.017 1.563-.622 1.82-1.2v-4.147c0-.515-.136-.58-.484-.58h-.44v-.572l2.46-.534c.182-.045.288.015.288.257v6.272c0 .41.092.44.426.44h.425v.578zm2.832.53c-.772 0-1.32-.303-1.35-1.945v-4.69c0-.167 0-.212-.046-.212h-1.23v-.563l1.334-.396V141.8l1.49-.56c.197-.028.29 0 .29.273v1.82h2.094v.945h-2.095v4.586c-.017 1.004.24 1.034.666 1.034.562-.015 1.442-.064 1.442-.064l.094.608s-1.583.697-2.69.697zm11.593-7.41c-.606.058-.76.122-1.17 1.092-.44 1.08-.837 2.128-2.02 4.878-.454 1.05-1.033 2.275-1.808 3.978-.29.623-.804.91-1.276.93-.638.016-1.045-.35-1.062-1.157.378-.117 1.67-.924 2.476-2.868l-2.582-5.862c-.316-.732-.44-.99-1.138-1.005v-.515c1.262.044 2.34.03 3.63 0v.514c-.548.016-.685.213-.562.624l1.533 4.24h.077c.53-1.356 1.154-2.875 1.58-4.21.166-.44.03-.64-.653-.654v-.514c1.122.044 1.835.03 2.976 0v.53zm-84.197 5.134c0 .94.546 1.202 1.185 1.202.516-.034 1.215-.396 1.564-.807v-2.45c-1.29.08-2.75.807-2.75 2.054z"/></svg>